<?xml version="1.0" standalone="no"?>
<svg xmlns:xlink="http://www.w3.org/1999/xlink" id="wave" style="transform:rotate(180deg); transition: 0.3s" viewBox="0 0 1440 100" version="1.1" xmlns="http://www.w3.org/2000/svg"><defs><linearGradient id="sw-gradient-0" x1="0" x2="0" y1="1" y2="0"><stop stop-color="rgba(57, 98, 115, 1)" offset="0%"/><stop stop-color="rgba(57, 98, 115, 1)" offset="100%"/></linearGradient></defs><path style="transform:translate(0, 0px); opacity:1" fill="url(#sw-gradient-0)" d="M0,90L34.3,76.7C68.6,63,137,37,206,26.7C274.3,17,343,23,411,25C480,27,549,23,617,18.3C685.7,13,754,7,823,10C891.4,13,960,27,1029,40C1097.1,53,1166,67,1234,65C1302.9,63,1371,47,1440,36.7C1508.6,27,1577,23,1646,28.3C1714.3,33,1783,47,1851,55C1920,63,1989,67,2057,61.7C2125.7,57,2194,43,2263,43.3C2331.4,43,2400,57,2469,65C2537.1,73,2606,77,2674,70C2742.9,63,2811,47,2880,41.7C2948.6,37,3017,43,3086,45C3154.3,47,3223,43,3291,35C3360,27,3429,13,3497,21.7C3565.7,30,3634,60,3703,75C3771.4,90,3840,90,3909,88.3C3977.1,87,4046,83,4114,78.3C4182.9,73,4251,67,4320,68.3C4388.6,70,4457,80,4526,80C4594.3,80,4663,70,4731,56.7C4800,43,4869,27,4903,18.3L4937.1,10L4937.1,100L4902.9,100C4868.6,100,4800,100,4731,100C4662.9,100,4594,100,4526,100C4457.1,100,4389,100,4320,100C4251.4,100,4183,100,4114,100C4045.7,100,3977,100,3909,100C3840,100,3771,100,3703,100C3634.3,100,3566,100,3497,100C3428.6,100,3360,100,3291,100C3222.9,100,3154,100,3086,100C3017.1,100,2949,100,2880,100C2811.4,100,2743,100,2674,100C2605.7,100,2537,100,2469,100C2400,100,2331,100,2263,100C2194.3,100,2126,100,2057,100C1988.6,100,1920,100,1851,100C1782.9,100,1714,100,1646,100C1577.1,100,1509,100,1440,100C1371.4,100,1303,100,1234,100C1165.7,100,1097,100,1029,100C960,100,891,100,823,100C754.3,100,686,100,617,100C548.6,100,480,100,411,100C342.9,100,274,100,206,100C137.1,100,69,100,34,100L0,100Z"/></svg>